# xmcd
#
# Track frame offsets: 
#        150
#        20943
#        42691
#        58777
#        75404
#        96047
#        120030
#        131829
#        149238
#        166704
#        187373
#        206614
#        223770
#        240098
#        253658
#        272012
#        296505
#
# Disc length: 4132 seconds
#
# Revision: 6
# Processed by: cddbd v1.5.2PL0 Copyright (c) Steve Scherf et al.
# Submitted via: ExactAudioCopyFreeDBPlugin 1.0
#
DISCID=04102211
DTITLE=Various Artist - Türkce Pop 100
DYEAR=2012
DGENRE=Turkce Pop
TTITLE0=Nazan Öncel and Tarkan - Nereye Böyle
TTITLE1=Sezen Aksu - Gidiyorum
TTITLE2=Kenan Dogulu - Baş Harfi Ben
TTITLE3=MFO - Gözyaşlarımızı Bitti Mi Sandın
TTITLE4=Ajda Pekkan - Aldatma
TTITLE5=Ferhat Göcer - Gidemem
TTITLE6=Yeni Türkü - Bana Bir Masal Anlat Baba
TTITLE7=Ilhan Sesen - Bu Sabah Sevinçle  Uyan
TTITLE8=Mirkelam - Martılar, Şarkılar Vicdansız
TTITLE9=Zeynep Casalini - Dokunma Bana
TTITLE10=Teoman - Bazı Yalanlar
TTITLE11=Yüksek Sadakat - Döneceksin Diye Söz Ver
TTITLE12=Emre Altug - Senin Tenin Senin Kokun
TTITLE13=Sefarad - Ne Farkeder
TTITLE14=Burak Kut - Yalan Oldu
TTITLE15=Gökhan Özen - Her Şeyde Biraz Sen Varsın
TTITLE16=Alpay - Eylül'de Gel
EXTD=
EXTT0=
EXTT1=
EXTT2=
EXTT3=
EXTT4=
EXTT5=
EXTT6=
EXTT7=
EXTT8=
EXTT9=
EXTT10=
EXTT11=
EXTT12=
EXTT13=
EXTT14=
EXTT15=
EXTT16=
PLAYORDER=
